<svg width="108" height="101" viewBox="0 0 108 101" fill="none" xmlns="http://www.w3.org/2000/svg">
<path fill-rule="evenodd" clip-rule="evenodd" d="M41.702 6.62674C47.6169 -2.02729 60.3828 -2.02726 66.2977 6.62676L68.6372 10.0498C83.295 31.4956 95.8885 54.2814 106.249 78.1021L106.738 79.2256C110.389 87.6202 104.873 97.152 95.7753 98.1688C68.0114 101.272 39.9883 101.272 12.2244 98.1688C3.12689 97.152 -2.38925 87.6202 1.26188 79.2256L1.75055 78.1021C12.1112 54.2814 24.7047 31.4955 39.3624 10.0498L41.702 6.62674ZM59.4166 33.75C59.4166 36.7415 56.9915 39.1666 53.9999 39.1666C51.0084 39.1666 48.5833 36.7415 48.5833 33.75C48.5833 30.7584 51.0084 28.3333 53.9999 28.3333C56.9915 28.3333 59.4166 30.7584 59.4166 33.75ZM53.9999 48.6458C56.2436 48.6458 58.0624 50.4647 58.0624 52.7083V79.7916C58.0624 82.0353 56.2436 83.8541 53.9999 83.8541C51.7563 83.8541 49.9374 82.0353 49.9374 79.7916V52.7083C49.9374 50.4647 51.7563 48.6458 53.9999 48.6458Z" fill="#00CA97"/>
</svg>
