<svg width="128" height="90" viewBox="0 0 128 90" fill="none" xmlns="http://www.w3.org/2000/svg">
<rect width="128" height="90" rx="4" fill="#0060AF"/>
<path fill-rule="evenodd" clip-rule="evenodd" d="M26.3263 53.6237C26.3263 52.4158 26.3404 49.1872 26.3083 48.7894C26.3363 43.9852 22.572 40.5963 20.1939 40.8605C18.5483 40.993 17.1689 41.6157 16.4287 43.4068C15.7421 45.0762 16.356 47.2966 18.6378 47.8176C21.0774 48.3772 22.5025 48.8427 23.5336 49.4995C24.797 50.3036 25.8284 51.8399 25.8558 53.6256" fill="white"/>
<path fill-rule="evenodd" clip-rule="evenodd" d="M25.3066 53.6255C25.3146 52.0772 24.3833 50.7081 23.1661 49.9723C22.0865 49.3221 20.637 48.895 18.2986 48.3445C17.5758 48.1729 16.8197 47.7918 16.5856 47.306C15.9664 47.885 15.8539 49.1865 15.9629 49.9475C16.0895 50.8275 17.198 52.2782 18.8671 52.3351C19.8865 52.373 21.1752 52.1315 21.7932 52.0097C22.8593 51.796 24.5461 52.4157 24.8146 53.6235" fill="white"/>
<path fill-rule="evenodd" clip-rule="evenodd" d="M27.1886 33.3738C24.3582 33.3738 21.9138 35.1057 21.9224 38.1026C21.9312 40.6228 24.1153 41.9719 24.895 42.9355C26.0727 44.3877 26.7101 46.1064 26.7761 48.7364C26.8279 50.8295 26.8253 52.8964 26.8367 53.6289H27.4612C27.4506 52.8625 27.4224 50.6683 27.4544 48.6717C27.4968 46.0409 28.1573 44.3877 29.3356 42.9355C30.122 41.9719 32.304 40.6228 32.3087 38.1026C32.3196 35.1057 29.8761 33.3738 27.0487 33.3738" fill="white"/>
<path fill-rule="evenodd" clip-rule="evenodd" d="M27.9068 53.6237C27.9068 52.4158 27.892 49.1872 27.9235 48.7894C27.8959 43.9852 31.6578 40.5963 34.038 40.8605C35.6836 40.993 37.0612 41.6157 37.8038 43.4068C38.4895 45.0762 37.8724 47.2966 35.5935 47.8176C33.152 48.3772 31.7291 48.8427 30.6953 49.4995C29.4334 50.3036 28.4741 51.8399 28.4447 53.6256" fill="white"/>
<path fill-rule="evenodd" clip-rule="evenodd" d="M28.9257 53.6255C28.9169 52.0772 29.8479 50.7081 31.0615 49.9723C32.1459 49.3221 33.5969 48.895 35.9332 48.3445C36.6575 48.1729 37.4127 47.7918 37.6426 47.306C38.2648 47.885 38.3772 49.1865 38.268 49.9475C38.1391 50.8275 37.0332 52.2782 35.367 52.3351C34.3483 52.373 33.0525 52.1315 32.4371 52.0097C31.3751 51.796 29.6836 52.4157 29.4139 53.6235" fill="white"/>
<path fill-rule="evenodd" clip-rule="evenodd" d="M29.7987 58.624L29.4369 56.1719L30.3111 56.0489C30.5236 56.0222 30.7827 56.0566 30.8864 56.1801C31.0009 56.3093 31.0359 56.4161 31.058 56.5855C31.0913 56.7954 31.0259 57.0374 30.7715 57.1582V57.1656C31.0554 57.1656 31.227 57.3549 31.2771 57.6746C31.2841 57.7423 31.3059 57.9052 31.2841 58.0412C31.2264 58.365 31.0186 58.4693 30.667 58.515L29.7987 58.624ZM30.3614 58.186C30.465 58.172 30.5701 58.1669 30.6523 58.1182C30.7783 58.042 30.7668 57.8792 30.7491 57.7579C30.7056 57.492 30.6308 57.3907 30.3266 57.4325L30.1353 57.4598L30.2566 58.1994L30.3614 58.186ZM30.1786 57.052C30.2943 57.0348 30.4509 57.0217 30.5163 56.9198C30.5508 56.8518 30.5943 56.7977 30.5655 56.6463C30.5298 56.4671 30.466 56.3556 30.2201 56.3988L29.9913 56.4329L30.0817 57.0613L30.1786 57.052Z" fill="white"/>
<path fill-rule="evenodd" clip-rule="evenodd" d="M33.5855 57.1498C33.5923 57.1955 33.6002 57.2463 33.6032 57.2919C33.6738 57.7389 33.5855 58.1094 33.0437 58.2113C32.2426 58.3542 32.0892 57.8927 31.9485 57.2463L31.8734 56.8963C31.763 56.278 31.7156 55.8097 32.4964 55.6652C32.9366 55.5909 33.2275 55.7534 33.3485 56.16C33.3673 56.2206 33.3909 56.2805 33.3997 56.3417L32.9207 56.4335C32.8653 56.2805 32.792 56.0075 32.5765 56.0305C32.1896 56.0739 32.3174 56.5204 32.3571 56.7072L32.5011 57.3785C32.5444 57.5815 32.6304 57.9058 32.9651 57.8433C33.2369 57.7927 33.1182 57.3998 33.0941 57.2386" fill="white"/>
<path fill-rule="evenodd" clip-rule="evenodd" d="M34.3541 57.8912L34.1886 55.3536L34.8319 55.1714L36.1813 57.3784L35.6746 57.5191L35.3548 56.9582L34.7922 57.115L34.8649 57.7527L34.3541 57.8912ZM34.7449 56.7056L35.1516 56.5964L34.6116 55.5696L34.7449 56.7056Z" fill="white"/>
<path fill-rule="evenodd" clip-rule="evenodd" d="M18.4572 55.9726C18.6586 55.3746 18.8388 54.9339 19.6075 55.1295C20.0189 55.2363 20.2738 55.4044 20.2618 55.8478C20.2597 55.9464 20.2247 56.0472 20.2017 56.1445L19.7232 56.0221C19.786 55.777 19.8257 55.5828 19.5007 55.4899C19.125 55.3942 19.0334 55.8172 18.9816 55.9997L18.787 56.6647C18.7251 56.8622 18.6509 57.1887 18.9816 57.2731C19.2548 57.3412 19.4203 57.0925 19.5192 56.7292L19.1847 56.6467L19.3004 56.262L20.0875 56.4967L19.7138 57.7789L19.3517 57.6876L19.4332 57.4166H19.4229C19.256 57.6384 19.0528 57.6617 18.8747 57.6297C18.0877 57.4324 18.1698 56.9551 18.3577 56.3174" fill="white"/>
<path fill-rule="evenodd" clip-rule="evenodd" d="M21.3866 57.0558L21.1496 58.0989L20.6161 57.9921L21.1846 55.5564L22.0941 55.7468C22.6265 55.8537 22.7872 56.0733 22.7118 56.5263C22.6689 56.7861 22.5308 57.0659 22.1937 57.0432L22.1901 57.0391C22.4751 57.1315 22.4993 57.2651 22.4495 57.4954C22.428 57.5938 22.2799 58.1888 22.3821 58.285L22.3856 58.3582L21.8336 58.2243C21.8106 58.0596 21.8889 57.7629 21.9198 57.5984C21.9507 57.4531 22.0005 57.2482 21.8415 57.1714C21.7173 57.1096 21.6707 57.1126 21.53 57.0829L21.3866 57.0558ZM21.4777 56.6784L21.8369 56.7683C22.055 56.7978 22.1763 56.6929 22.2193 56.4481C22.2582 56.2238 22.2078 56.1363 22.0121 56.0929L21.6269 56.0202L21.4777 56.6784Z" fill="white"/>
<path fill-rule="evenodd" clip-rule="evenodd" d="M24.8085 56.1003L25.3362 56.1572L25.1089 57.8697C24.9984 58.4126 24.7723 58.6497 24.1287 58.5757C23.4739 58.4986 23.3184 58.2221 23.3579 57.6749L23.5869 55.964L24.1187 56.0203L23.8905 57.6929C23.8661 57.8746 23.821 58.1437 24.169 58.1765C24.4779 58.1984 24.548 58.0082 24.583 57.7721" fill="white"/>
<path fill-rule="evenodd" clip-rule="evenodd" d="M25.9178 58.6692L26.0768 56.2207L27.0903 56.2614C27.5696 56.2835 27.6947 56.6463 27.68 56.9928C27.6659 57.2034 27.5952 57.4387 27.3974 57.5663C27.2351 57.6747 27.0264 57.7004 26.8332 57.6917L26.5029 57.6747L26.4369 58.7009L25.9178 58.6692ZM26.5176 57.302L26.7861 57.3159C27.0043 57.3233 27.1488 57.2433 27.1677 56.946C27.1786 56.6608 27.062 56.6121 26.7793 56.6007L26.5667 56.5938L26.5176 57.302Z" fill="white"/>
<path fill-rule="evenodd" clip-rule="evenodd" d="M97.4151 35.7397L93.3861 42.5258C91.8653 41.3797 90.0086 40.5366 87.6394 40.5366C82.0325 40.5366 79.7548 44.4146 79.7548 47.1464C79.7548 49.1745 81.1857 52.1662 86.1746 52.1662C88.2688 52.1662 91.2455 50.8146 92.1023 50.1993L88.1178 58.0723C86.2184 58.4239 85.5942 58.6419 83.9866 58.6881C75.0571 58.9353 71.4492 53.8451 71.4515 48.6442C71.4577 41.7682 78.0453 33.4062 88.9667 33.4062C89.6356 33.4062 90.4541 33.6212 91.154 33.8592L91.8615 33.0196" fill="white"/>
<path fill-rule="evenodd" clip-rule="evenodd" d="M114.039 33.233L115.18 57.8963H106.69L106.685 53.6667H100.895L98.9896 57.8963H89.781L99.4083 40.2847L97.2375 40.2716L101.362 33.233H114.039ZM106.629 40.7781L103.356 47.9519H106.728L106.629 40.7781Z" fill="white"/>
<path fill-rule="evenodd" clip-rule="evenodd" d="M66.0911 33.2331C70.2959 33.255 72.6719 35.3729 72.6719 38.4321C72.6719 41.2528 70.166 43.7491 67.4152 45.0401C70.2473 46.0064 70.4923 48.3779 70.4923 50.0555C70.4923 54.1091 66.1094 57.8964 60.4118 57.8964H47.986L52.8329 40.5301L50.8419 40.5195L54.9119 33.2331C54.9119 33.2331 62.6719 33.2113 66.0911 33.2331ZM61.9657 43.2327C62.8355 43.2327 64.3712 43.0283 64.7551 41.4664C65.1759 39.7705 63.7347 39.7249 63.0433 39.7249L60.5731 39.7151L59.7115 43.2327H61.9657ZM58.4733 47.591L57.3359 51.6444H60.2449C61.3891 51.6444 62.9487 51.1171 63.3308 49.7981C63.7083 48.4754 62.618 47.591 61.478 47.591H58.4733Z" fill="white"/>
<path fill-rule="evenodd" clip-rule="evenodd" d="M27.3003 60.9266C22.9978 60.9266 18.5766 59.9433 14.1611 57.9986L14.0527 57.9491L14.0009 57.8467C12.0194 53.9654 10.9712 49.7205 10.9712 45.5671C10.9712 41.4197 11.9764 37.3562 13.9591 33.4801L14.0138 33.3771L14.1243 33.3257C18.2089 31.5301 22.6027 30.6209 27.1884 30.6209C31.4598 30.6209 36.022 31.6331 40.379 33.5538L40.4905 33.6L40.5424 33.7049C42.5616 37.6578 43.6265 41.9019 43.6265 45.9867C43.6265 50.0552 42.604 54.1225 40.5821 58.0729L40.5291 58.1765L40.4166 58.2245C36.3941 59.9914 31.8584 60.9266 27.3003 60.9266ZM14.5698 57.4662C18.8591 59.3388 23.1374 60.2841 27.3004 60.2841C31.7145 60.2841 36.1042 59.3888 40.0122 57.6916C41.9533 53.8636 42.9373 49.9238 42.9373 45.9865C42.9373 42.0329 41.9103 37.9207 39.9677 34.084C35.7394 32.2395 31.3235 31.2614 27.1885 31.2614C22.7491 31.2614 18.4937 32.1351 14.5327 33.8591C12.6312 37.6158 11.6635 41.5525 11.6635 45.5669C11.6635 49.5883 12.6689 53.7024 14.5698 57.4662Z" fill="white"/>
</svg>
