<svg width="130" height="92" viewBox="0 0 130 92" fill="none" xmlns="http://www.w3.org/2000/svg">
<rect x="1" y="1" width="128" height="90" rx="4" fill="white" stroke="#7C7C7C"/>
<path fill-rule="evenodd" clip-rule="evenodd" d="M21.7578 54.443L26.1018 59.7383H15.3469L21.7578 54.443ZM20.3919 52.8072L11.9789 59.7543L11.9755 42.6685L20.3919 52.8072ZM40.6341 35.6027C40.6341 35.6027 38.7872 34.742 36.6416 34.8677C34.1887 35.0099 32.1366 35.9359 30.9569 37.1578C30.2145 37.9255 29.3939 38.8619 28.9817 39.8789C28.3839 41.3502 28.2562 43.2942 28.2562 43.2942C28.2562 43.2942 27.3983 42.5774 26.3235 40.4889C25.0737 38.0596 24.7319 36.588 24.5625 34.9092C24.4118 33.4359 24.6484 31.9791 24.6484 31.9791H40.6341V35.6027ZM40.6341 40.4465V51.2198C40.6341 51.2198 39.6403 51.5955 38.8296 51.5955C38.019 51.5955 36.6385 51.4772 35.0352 50.6095C33.4436 49.7488 32.5626 48.7076 31.8796 47.764C31.1869 46.8043 30.615 45.4739 30.4449 44.5152C30.3083 43.7483 30.161 41.8352 30.9568 40.2804C31.3887 39.4366 32.5477 37.9903 34.7792 37.9081C36.5981 37.8393 37.6068 38.3101 38.5313 38.8095C40.2905 39.7618 40.6341 40.4465 40.6341 40.4465ZM23.2276 50.4633L26.1111 48.0973C25.1921 46.9418 24.9493 46.5064 23.922 45.0146C22.8703 43.4878 21.9893 41.808 21.2359 39.837C20.4204 37.7019 20.2234 36.5032 20.3135 34.9093C20.4263 32.8814 20.8947 31.9793 20.8947 31.9793H11.9712L11.9753 36.7135C11.9753 36.7135 18.806 45.14 23.2276 50.4633ZM31.4665 59.7306H40.6343V53.1504C40.6343 53.1504 38.3604 54.1772 36.8823 54.2601C36.0023 54.3106 35.1482 54.344 33.7701 53.9831C32.2382 53.5824 31.3679 53.1919 29.9481 52.0391C28.8077 51.1144 27.5037 49.749 27.5037 49.749L24.6034 52.1294C25.949 53.7496 26.9428 54.929 27.2471 55.2464C28.5551 56.6072 29.1095 57.1072 29.9905 57.5921C30.8711 58.0781 33.8136 58.0518 33.8136 58.0518L31.4665 59.7306Z" fill="#E94E0F"/>
<path fill-rule="evenodd" clip-rule="evenodd" d="M109.97 53.877C109.97 55.7836 110.231 58.9175 108.062 59.6804V59.8075H116.3V59.6804C114.132 58.8757 114.392 55.7836 114.392 53.877V37.9086C114.392 36.0029 114.132 32.8684 116.3 32.0637V31.9366H108.062V32.0637C110.273 32.8684 109.97 35.9605 109.97 37.9086V53.877ZM79.7622 37.9086L94.6347 56.3342C96.5419 58.748 97.8869 60.1465 100.965 61.1625V37.4004C100.965 35.0287 100.965 33.3341 103.221 32.0637V31.9366H95.5885V32.0637C97.8869 33.3341 97.8428 35.0287 97.8428 37.4004V53.4537L81.974 33.8847L81.3662 33.0375C81.0633 32.6989 80.8901 32.4872 80.7166 31.9791V31.9366H74.3851V32.0637C76.64 33.3341 76.64 35.0287 76.64 37.4004V54.3016C76.64 56.6729 76.64 58.3669 74.3426 59.6804V59.8075H82.0174V59.6804C79.719 58.3669 79.7622 56.6729 79.7622 54.3016V37.9086ZM55.5192 43.1611V34.8593L58.4237 34.5621C61.0256 34.308 63.8001 35.8332 63.8001 38.7561C63.8001 42.2294 59.7676 43.1611 56.95 43.1611H55.5192ZM55.5192 56.4195V45.957L58.5537 45.7878C62.3695 45.5759 66.4451 47.3554 66.4451 51.4639C66.4451 55.4877 62.8473 57.0972 59.2909 56.7585L55.5192 56.4195ZM51.096 53.8349C51.096 55.7836 51.3564 58.8758 49.1877 59.6805V59.8075H56.3424C59.5942 59.8075 63.0206 59.9349 66.0551 58.4946C68.9603 57.139 71.2587 54.3431 71.2587 51.0814C71.2587 46.9312 68.0928 44.3894 64.1903 43.584C66.6623 42.5256 68.526 40.9161 68.526 38.0781C68.526 34.3083 65.1883 31.9367 59.4652 31.9367H49.1877V32.0637C51.4003 32.8684 51.096 35.9605 51.096 37.8661V53.8349Z" fill="#005B6A"/>
</svg>
