<svg width="128" height="90" viewBox="0 0 128 90" fill="none" xmlns="http://www.w3.org/2000/svg">
<rect width="128" height="90" rx="4" fill="#00529C"/>
<path fill-rule="evenodd" clip-rule="evenodd" d="M37.9451 39.0432H44.0457C46.5162 39.0432 48.3579 40.1192 48.3579 42.3843C48.3579 44.0451 47.5041 44.97 46.021 45.46V45.4974C47.7887 45.857 48.7009 46.8008 48.7009 48.4042C48.7009 51.5569 45.9065 52.2169 43.5315 52.2169H37.9451V39.0432ZM41.4788 44.2522H42.4679C43.627 44.2522 44.825 43.969 44.825 42.8546C44.825 41.6482 43.6843 41.5339 42.5049 41.5339H41.4788V44.2522ZM41.4788 49.7255H42.5257C43.8168 49.7255 45.1656 49.5365 45.1656 48.1963C45.1656 46.763 43.7792 46.6297 42.5627 46.6297H41.4788V49.7255Z" fill="white"/>
<path fill-rule="evenodd" clip-rule="evenodd" d="M53.34 39.0432H57.673L62.7851 52.2169H58.9079L57.9205 49.4055H52.9414L51.8956 52.2169H48.3042L53.34 39.0432ZM55.5075 41.7617H55.4675L53.7583 46.9147H57.0837L55.5075 41.7617Z" fill="white"/>
<path fill-rule="evenodd" clip-rule="evenodd" d="M63.2772 39.0432H67.7808L72.266 47.99H72.303L72.2469 39.0432H75.4785V52.2169H71.0883L66.4499 43.2144H66.4134L66.5268 52.2169H63.2772V39.0432Z" fill="white"/>
<path fill-rule="evenodd" clip-rule="evenodd" d="M76.6781 39.0432H80.2123V44.4237H80.2505L84.2399 39.0432H88.4982L83.5943 45.1768L88.8783 52.2169H84.3729L80.2505 46.2344H80.2123V52.2169H76.6781V39.0432Z" fill="white"/>
<path fill-rule="evenodd" clip-rule="evenodd" d="M93.2605 39.0432H99.3612C101.831 39.0432 103.675 40.1192 103.675 42.3843C103.675 44.0451 102.821 44.97 101.338 45.46V45.4974C103.105 45.857 104.017 46.8008 104.017 48.4042C104.017 51.5569 101.224 52.2169 98.8492 52.2169H93.2605V39.0432ZM96.7958 44.2522H97.7831C98.9429 44.2522 100.139 43.969 100.139 42.8546C100.139 41.6482 99.0002 41.5339 97.8225 41.5339H96.7958V44.2522ZM96.7958 49.7255H97.8416C99.1326 49.7255 100.483 49.5365 100.483 48.1963C100.483 46.763 99.0956 46.6297 97.8792 46.6297H96.7958V49.7255Z" fill="white"/>
<path fill-rule="evenodd" clip-rule="evenodd" d="M104.801 39.0432H111.11C113.466 39.0432 115.386 40.0997 115.386 42.366C115.386 44.121 114.55 45.2911 112.84 45.687V45.7243C113.978 46.027 114.055 47.0266 114.721 48.6311L116.013 52.2169H112.327L111.567 49.8404C110.844 47.5752 110.388 47.0077 109.076 47.0077H108.335V52.2169H104.801V39.0432ZM108.335 44.5165H109.267C110.407 44.5165 111.852 44.478 111.852 42.9873C111.852 41.7613 110.615 41.5339 109.267 41.5339H108.335V44.5165Z" fill="white"/>
<mask id="mask0_8056_1918" style="mask-type:alpha" maskUnits="userSpaceOnUse" x="7" y="32" width="114" height="27">
<path fill-rule="evenodd" clip-rule="evenodd" d="M7.31433 58.8702H120.521V32.3998H7.31433V58.8702Z" fill="white"/>
</mask>
<g mask="url(#mask0_8056_1918)">
<path fill-rule="evenodd" clip-rule="evenodd" d="M116.987 52.2169H120.521V39.0432H116.987V52.2169Z" fill="white"/>
<path fill-rule="evenodd" clip-rule="evenodd" d="M29.8792 32.3998H11.38C9.13458 32.3998 7.31427 34.2524 7.31427 36.5382V36.5819V54.7328C7.31427 56.9962 9.10103 58.8362 11.3176 58.8701H29.8694C32.1154 58.8701 33.9363 57.0175 33.9363 54.7328L33.945 36.5382C33.945 34.2524 32.1253 32.3998 29.8792 32.3998ZM13.5791 56.7495L12.5698 56.7604C11.3482 56.7604 10.3579 55.7637 10.3579 54.5337L10.3521 54.3585V37.5553L10.3585 36.6505C10.4042 35.4602 11.3146 34.502 12.5073 34.502H14.559C16.4181 34.502 17.926 36.1077 17.926 38.0023C17.926 38.9386 17.5564 39.7889 16.9577 40.407L11.723 45.6823L16.6292 50.644C17.262 51.2914 17.6443 52.1428 17.6443 53.0752C17.6443 55.1047 15.824 56.7495 13.5791 56.7495ZM28.6621 56.7328L19.5149 56.7288C19.5149 56.7288 20.5728 54.4585 20.5728 53.0533C20.5728 51.3403 19.9956 49.8093 19.0926 48.7965L15.9639 45.6289L19.1574 42.3521C20.1078 41.4646 20.7394 39.8894 20.7394 38.0953C20.7394 36.6747 20.3438 35.416 19.7069 34.502H21.9234C23.7831 34.502 25.291 36.1077 25.291 38.0023C25.291 38.9386 24.922 39.7889 24.3233 40.407L19.1887 45.6272L29.8531 56.4278C29.5153 56.6392 29.089 56.7328 28.6621 56.7328ZM30.896 53.3605L23.2532 45.6247L26.8933 41.9504C27.6348 41.0307 28.1045 39.6445 28.1045 38.0952C28.1045 36.6653 27.7031 35.3762 27.0604 34.4617L28.6899 34.5099C29.9115 34.5099 30.9018 35.5083 30.9018 36.7377L30.896 53.3605Z" fill="white"/>
</g>
</svg>
