<svg width="46" height="35" viewBox="0 0 46 35" fill="none" xmlns="http://www.w3.org/2000/svg">
<rect width="46" height="35" rx="3" fill="#EEEEEE"/>
<rect width="13" height="9" transform="translate(5 13)" fill="white"/>
<path fill-rule="evenodd" clip-rule="evenodd" d="M5 13H18V17.8H5V13Z" fill="#F93939"/>
<path d="M25.97 17.73H23.84V19.89H22.99V17.73H20.87V16.96H22.99V14.79H23.84V16.96H25.97V17.73ZM31.9762 15.49C31.8295 14.75 31.3728 14.38 30.6062 14.38C30.0128 14.38 29.5695 14.61 29.2762 15.07C28.9828 15.5233 28.8395 16.2733 28.8462 17.32C28.9995 16.9733 29.2528 16.7033 29.6062 16.51C29.9662 16.31 30.3662 16.21 30.8062 16.21C31.4928 16.21 32.0395 16.4233 32.4462 16.85C32.8595 17.2767 33.0662 17.8667 33.0662 18.62C33.0662 19.0733 32.9762 19.48 32.7962 19.84C32.6228 20.2 32.3562 20.4867 31.9962 20.7C31.6428 20.9133 31.2128 21.02 30.7062 21.02C30.0195 21.02 29.4828 20.8667 29.0962 20.56C28.7095 20.2533 28.4395 19.83 28.2862 19.29C28.1328 18.75 28.0562 18.0833 28.0562 17.29C28.0562 14.8433 28.9095 13.62 30.6162 13.62C31.2695 13.62 31.7828 13.7967 32.1562 14.15C32.5295 14.5033 32.7495 14.95 32.8162 15.49H31.9762ZM30.6162 16.98C30.3295 16.98 30.0595 17.04 29.8062 17.16C29.5528 17.2733 29.3462 17.45 29.1862 17.69C29.0328 17.9233 28.9562 18.21 28.9562 18.55C28.9562 19.0567 29.1028 19.47 29.3962 19.79C29.6895 20.1033 30.1095 20.26 30.6562 20.26C31.1228 20.26 31.4928 20.1167 31.7662 19.83C32.0462 19.5367 32.1862 19.1433 32.1862 18.65C32.1862 18.13 32.0528 17.7233 31.7862 17.43C31.5195 17.13 31.1295 16.98 30.6162 16.98ZM34.6838 20.27C35.5305 19.59 36.1938 19.0333 36.6738 18.6C37.1538 18.16 37.5572 17.7033 37.8838 17.23C38.2172 16.75 38.3838 16.28 38.3838 15.82C38.3838 15.3867 38.2772 15.0467 38.0638 14.8C37.8572 14.5467 37.5205 14.42 37.0538 14.42C36.6005 14.42 36.2472 14.5633 35.9938 14.85C35.7472 15.13 35.6138 15.5067 35.5938 15.98H34.7138C34.7405 15.2333 34.9672 14.6567 35.3938 14.25C35.8205 13.8433 36.3705 13.64 37.0438 13.64C37.7305 13.64 38.2738 13.83 38.6738 14.21C39.0805 14.59 39.2838 15.1133 39.2838 15.78C39.2838 16.3333 39.1172 16.8733 38.7838 17.4C38.4572 17.92 38.0838 18.38 37.6638 18.78C37.2438 19.1733 36.7072 19.6333 36.0538 20.16H39.4938V20.92H34.6838V20.27Z" fill="black"/>
</svg>
