<svg width="334" height="30" viewBox="0 0 334 30" fill="none" xmlns="http://www.w3.org/2000/svg">
<path d="M3.03 14.03C3.13 14.53 3.345 14.91 3.675 15.17C4.005 15.43 4.45 15.56 5.01 15.56C5.72 15.56 6.24 15.28 6.57 14.72C6.9 14.16 7.065 13.205 7.065 11.855C6.825 12.195 6.485 12.46 6.045 12.65C5.615 12.83 5.145 12.92 4.635 12.92C3.985 12.92 3.395 12.79 2.865 12.53C2.335 12.26 1.915 11.865 1.605 11.345C1.305 10.815 1.155 10.175 1.155 9.425C1.155 8.325 1.475 7.45 2.115 6.8C2.765 6.14 3.655 5.81 4.785 5.81C6.145 5.81 7.11 6.265 7.68 7.175C8.26 8.075 8.55 9.46 8.55 11.33C8.55 12.62 8.44 13.675 8.22 14.495C8.01 15.315 7.64 15.935 7.11 16.355C6.58 16.775 5.845 16.985 4.905 16.985C3.835 16.985 3.01 16.705 2.43 16.145C1.85 15.585 1.525 14.88 1.455 14.03H3.03ZM4.935 11.48C5.535 11.48 6.005 11.295 6.345 10.925C6.695 10.545 6.87 10.045 6.87 9.425C6.87 8.735 6.685 8.2 6.315 7.82C5.955 7.43 5.46 7.235 4.83 7.235C4.2 7.235 3.7 7.435 3.33 7.835C2.97 8.225 2.79 8.74 2.79 9.38C2.79 9.99 2.965 10.495 3.315 10.895C3.675 11.285 4.215 11.48 4.935 11.48ZM11.3365 17.105C11.0265 17.105 10.7665 17 10.5565 16.79C10.3465 16.58 10.2415 16.32 10.2415 16.01C10.2415 15.7 10.3465 15.44 10.5565 15.23C10.7665 15.02 11.0265 14.915 11.3365 14.915C11.6365 14.915 11.8915 15.02 12.1015 15.23C12.3115 15.44 12.4165 15.7 12.4165 16.01C12.4165 16.32 12.3115 16.58 12.1015 16.79C11.8915 17 11.6365 17.105 11.3365 17.105ZM11.3365 10.805C11.0265 10.805 10.7665 10.7 10.5565 10.49C10.3465 10.28 10.2415 10.02 10.2415 9.71C10.2415 9.4 10.3465 9.14 10.5565 8.93C10.7665 8.72 11.0265 8.615 11.3365 8.615C11.6365 8.615 11.8915 8.72 12.1015 8.93C12.3115 9.14 12.4165 9.4 12.4165 9.71C12.4165 10.02 12.3115 10.28 12.1015 10.49C11.8915 10.7 11.6365 10.805 11.3365 10.805ZM13.8882 14.72V13.43L18.9282 6.2H20.9982V13.235H22.3932V14.72H20.9982V17H19.3182V14.72H13.8882ZM19.3932 7.94L15.8532 13.235H19.3932V7.94ZM23.5852 7.625V6.065H26.7052V17H24.9802V7.625H23.5852Z" fill="black"/>
<rect x="266" y="13" width="3" height="4" fill="black"/>
<rect x="270" y="11" width="3" height="6" fill="black"/>
<rect x="274" y="9" width="3" height="8" fill="black"/>
<rect x="278" y="7" width="3" height="10" fill="black"/>
<circle cx="295.457" cy="15.4575" r="1.5" fill="black"/>
<path d="M299.346 11.5684C298.836 11.0577 298.229 10.6526 297.562 10.3762C296.895 10.0998 296.18 9.95752 295.457 9.95752C294.735 9.95752 294.02 10.0998 293.353 10.3762C292.685 10.6526 292.079 11.0577 291.568 11.5684L293.124 13.1241C293.43 12.8176 293.794 12.5746 294.195 12.4087C294.595 12.2429 295.024 12.1575 295.457 12.1575C295.891 12.1575 296.32 12.2429 296.72 12.4087C297.121 12.5746 297.484 12.8176 297.791 13.1241L299.346 11.5684Z" fill="black"/>
<path d="M302.686 8.2288C301.737 7.27951 300.61 6.52649 299.37 6.01274C298.129 5.49899 296.8 5.23457 295.457 5.23457C294.115 5.23457 292.786 5.49899 291.545 6.01274C290.305 6.52649 289.178 7.27951 288.229 8.2288L290.135 10.1348C290.834 9.43576 291.663 8.88128 292.577 8.50299C293.49 8.12469 294.469 7.92999 295.457 7.92999C296.446 7.92999 297.425 8.12469 298.338 8.50299C299.251 8.88128 300.081 9.43576 300.78 10.1348L302.686 8.2288Z" fill="black"/>
<rect x="313" y="9" width="17" height="6" rx="1" fill="black"/>
<rect x="311.5" y="7.5" width="20" height="9" rx="0.5" stroke="black"/>
<path d="M331 9H333C333.552 9 334 9.44772 334 10V14C334 14.5523 333.552 15 333 15H331V9Z" fill="black"/>
</svg>
