<svg width="326" height="218" viewBox="0 0 326 218" fill="none" xmlns="http://www.w3.org/2000/svg">
<rect x="0.189484" y="52.04" width="325.811" height="165.184" rx="17.8421" fill="url(#paint0_linear_1641_681)"/>
<mask id="mask0_1641_681" style="mask-type:alpha" maskUnits="userSpaceOnUse" x="0" y="0" width="326" height="218">
<rect x="0.189484" y="0.776123" width="325.811" height="216.448" rx="17.8421" fill="url(#paint1_linear_1641_681)"/>
</mask>
<g mask="url(#mask0_1641_681)">
<path d="M110.107 146.004C104.662 151.4 105.595 162.423 108.365 166.31C110.318 169.858 119.065 174.839 125.442 173.978C146.005 171.542 149.833 141.54 149.812 137.298C134.894 134.418 116.913 139.258 110.107 146.004Z" fill="#AAC853"/>
<path d="M115.688 126.634C110.866 130.923 101.654 129.556 98.5355 127.023C95.6579 125.194 91.9362 117.582 92.9969 112.27C96.1307 95.124 121.539 93.4944 125.102 93.7365C126.732 106.422 121.715 121.273 115.688 126.634Z" fill="#AAC853"/>
<path d="M92.1747 85.3266C88.8446 88.804 81.9122 88.3372 79.4414 86.6395C77.1921 85.4512 73.9701 80.0119 74.4419 75.9982C75.7496 63.059 94.5494 60.3309 97.2136 60.2984C99.1827 69.6357 96.3372 80.9798 92.1747 85.3266Z" fill="#AAC853"/>
<path d="M67.745 52.6574C66.0082 55.328 61.444 55.8779 59.6287 55.0784C58.0202 54.5827 55.256 51.4432 55.0688 48.7759C54.3261 40.2032 66.212 36.1156 67.94 35.7665C70.3694 41.5942 69.916 49.3192 67.745 52.6574Z" fill="#AAC853"/>
<path d="M101.447 147.326C108.209 150.936 110.473 161.765 108.932 166.282C108.077 170.241 101.123 177.519 94.7667 178.52C74.368 182.076 62.1065 154.427 60.9117 150.356C74.3801 143.325 92.9943 142.812 101.447 147.326Z" fill="#AAC853"/>
<path d="M84.4516 135.218C90.9039 135.318 96.9876 128.267 97.6957 124.312C98.6807 121.048 96.5281 112.853 92.2561 109.523C78.6855 98.5839 58.3787 113.943 55.8386 116.453C62.8884 127.124 76.3862 135.094 84.4516 135.218Z" fill="#AAC853"/>
<path d="M70.9124 94.6833C75.7155 95.018 80.5329 90.011 81.2202 87.0931C82.086 84.7011 80.8134 78.5085 77.7653 75.8549C68.097 67.1569 52.3474 77.7788 50.3536 79.5462C55.1745 87.7814 64.9086 94.2648 70.9124 94.6833Z" fill="#AAC853"/>
<path d="M55.5154 61.9701C58.7574 61.1663 60.8691 56.8332 60.7003 54.7604C60.7614 52.9966 58.6001 49.1803 56.0218 48.079C47.7837 44.4002 39.6534 54.7723 38.7144 56.3644C43.6539 60.772 51.4628 62.9749 55.5154 61.9701Z" fill="#AAC853"/>
<path d="M48.9436 25.8789C50.8404 28.9099 49.2411 33.8159 47.5687 35.2854C46.3033 36.6882 41.8002 38.0168 38.9966 36.9457C29.9194 33.6466 31.3809 19.6148 31.8429 17.6908C38.9239 17.9745 46.5726 22.0901 48.9436 25.8789Z" fill="#AAC853"/>
<path d="M124.084 197.332C116.956 143.319 75.7325 54.3054 36.2295 27.2434C65.1564 57.0115 103.711 132.893 110.873 199.457C112.953 199.153 118.575 198.756 124.084 197.332Z" fill="#AAC853"/>
<path d="M259.563 149.055C263.755 153.209 263.037 161.694 260.904 164.686C259.401 167.417 252.668 171.251 247.759 170.588C231.931 168.714 228.984 145.619 229 142.354C240.483 140.137 254.324 143.863 259.563 149.055Z" fill="#AAC853"/>
<path d="M255.268 134.145C258.979 137.446 266.07 136.394 268.471 134.445C270.686 133.037 273.551 127.177 272.734 123.089C270.322 109.89 250.763 108.636 248.021 108.822C246.766 118.587 250.628 130.018 255.268 134.145Z" fill="#AAC853"/>
<path d="M273.367 102.348C275.93 105.025 281.266 104.666 283.168 103.359C284.9 102.444 287.38 98.2574 287.017 95.1678C286.01 85.2078 271.539 83.1078 269.488 83.0828C267.972 90.2702 270.163 99.0024 273.367 102.348Z" fill="#AAC853"/>
<path d="M292.172 77.2011C293.509 79.2568 297.022 79.68 298.419 79.0646C299.658 78.683 301.785 76.2664 301.929 74.2132C302.501 67.6143 293.352 64.4678 292.022 64.1991C290.152 68.6851 290.501 74.6315 292.172 77.2011Z" fill="#AAC853"/>
<path d="M266.229 150.073C261.024 152.852 259.282 161.187 260.468 164.665C261.126 167.712 266.479 173.314 271.372 174.085C287.074 176.822 296.512 155.539 297.432 152.406C287.064 146.993 272.736 146.598 266.229 150.073Z" fill="#AAC853"/>
<path d="M279.312 140.753C274.345 140.83 269.662 135.402 269.117 132.358C268.359 129.845 270.016 123.537 273.304 120.974C283.75 112.553 299.382 124.376 301.337 126.308C295.91 134.522 285.52 140.657 279.312 140.753Z" fill="#AAC853"/>
<path d="M289.734 109.551C286.037 109.809 282.328 105.954 281.799 103.708C281.133 101.867 282.112 97.1002 284.459 95.0576C291.901 88.3622 304.024 96.5386 305.559 97.899C301.848 104.238 294.355 109.229 289.734 109.551Z" fill="#AAC853"/>
<path d="M301.586 84.3696C299.09 83.7509 297.465 80.4154 297.595 78.8199C297.547 77.4622 299.211 74.5245 301.196 73.6768C307.537 70.845 313.795 78.8291 314.518 80.0546C310.716 83.4474 304.705 85.143 301.586 84.3696Z" fill="#AAC853"/>
<path d="M306.644 56.5882C305.184 58.9213 306.415 62.6977 307.703 63.8289C308.677 64.9087 312.143 65.9314 314.301 65.1069C321.288 62.5675 320.163 51.7664 319.808 50.2854C314.357 50.5037 308.469 53.6717 306.644 56.5882Z" fill="#AAC853"/>
<path d="M248.804 188.565C254.291 146.989 286.023 78.4698 316.431 57.6387C294.164 80.5528 264.487 138.963 258.974 190.202C257.372 189.967 253.045 189.662 248.804 188.565Z" fill="#AAC853"/>
<path d="M207.932 73.0729L206.776 77.8844L208.51 82.9965L204.176 98.9344L190.016 97.1301C187.415 96.2279 182.213 92.6194 182.213 85.4022C182.213 78.1851 193.387 76.7817 198.974 76.9822C198.3 73.5741 198.223 65.8558 203.309 62.2472C209.666 57.7365 222.092 61.6458 226.138 67.9608C229.375 73.0128 225.367 74.0753 222.959 73.9751C219.973 73.1732 213.481 71.3889 211.4 70.6672C209.319 69.9455 208.221 71.9703 207.932 73.0729Z" fill="#EA8181"/>
<path d="M203.887 87.808L197.529 96.5287L196.662 101.641L210.244 110.963L213.423 103.144L212.556 91.7173C213.616 92.4189 215.446 93.3411 218.914 92.6194C222.299 91.915 222.655 78.7377 222.401 71.7692C222.391 71.4774 222.171 71.2399 221.882 71.2003L211.4 69.7651L210.359 69.8253C207.832 69.9714 205.631 71.6006 204.754 73.9751L203.887 87.808Z" fill="#A96161"/>
<path d="M250.99 180.428L240.587 171.406L245.5 163.588L250.99 173.211C250.99 172.609 251.857 171.406 255.325 171.406C258.793 171.406 264.765 177.02 267.751 179.225L250.99 180.428Z" fill="#A96161"/>
<path d="M192.327 93.2206C198.107 93.4612 203.598 100.137 205.62 103.445C208.28 107.054 209.088 106.753 210.244 106.753C211.4 106.753 211.689 101.34 213.134 99.8364C220.647 99.2349 224.693 118.18 226.427 125.999C228.045 139.471 241.55 156.471 248.1 163.287C246.752 165.292 243.419 170.083 240.876 173.211C221.803 164.49 214.868 145.244 213.134 141.936C211.747 139.29 211.496 140.834 211.111 141.936L209.088 189.75H150.425C152.159 181.43 156.436 161.182 159.673 146.748C171.521 93.2206 185.103 92.9199 192.327 93.2206Z" fill="#F6F6F6"/>
<path d="M41.1911 197.569C44.3699 196.667 77.6025 190.452 92.0515 187.946V205.087L18.6507 205.387C18.458 204.285 18.9396 202.019 22.4074 201.779C26.7421 201.478 33.3887 193.659 36.5674 193.659C39.7462 193.659 38.5903 196.967 41.1911 197.569Z" fill="#FAABB1"/>
<path d="M222.67 182.533L212.267 173.511L217.18 165.693L222.67 175.316C222.67 174.714 223.537 173.511 227.005 173.511C230.473 173.511 237.312 177.922 240.298 180.127L222.67 182.533Z" fill="#A96161"/>
<path d="M255.325 176.932C243.477 177.519 228.161 182.798 217.469 181.331V205.086H273.531V196.875C273.531 195.702 278.155 196.386 280.466 196.875C279.888 198.83 279.426 202.857 282.2 203.327C288.673 205.204 299.154 201.567 303.585 199.514L297.516 183.384L288.558 182.211C284.319 183.775 275.38 186.434 273.531 184.557C269.601 177.284 259.756 176.444 255.325 176.932Z" fill="#FAABB1"/>
<path d="M295.493 176.218C291.459 176.541 282.2 182.533 276.421 184.037C276.998 186.442 279.599 187.344 280.755 187.044C281.642 186.813 285.957 185.841 289.136 184.939C292.314 184.036 297.227 189.449 297.227 194.261C297.805 201.478 302.14 203.11 305.029 202.681C307.919 202.251 309.075 199.072 308.497 191.254C307.63 174.414 299.25 175.917 295.493 176.218Z" fill="black"/>
<path d="M212.795 175.015L220.358 165.388C214.896 161.405 202.899 152.11 198.613 146.799C194.327 141.487 194.096 129.316 194.516 123.894L178.758 127.877C178.653 131.307 179.137 140.89 181.91 151.778C184.683 162.666 203.655 171.806 212.795 175.015Z" fill="url(#paint2_linear_1641_681)"/>
<rect x="-11.2025" y="204.693" width="346.316" height="15.9488" rx="7.97438" fill="#F19450"/>
<path d="M89.1617 205.086C87.7736 196.633 89.6397 189.172 90.7965 186.628C115.282 185.454 165.353 181.932 169.749 177.236C182.474 169.31 200.694 175.181 203.007 177.236C204.858 178.879 214.575 179.877 219.203 180.171V205.086C177.365 205.282 92.8635 205.556 89.1617 205.086Z" fill="white"/>
</g>
<defs>
<linearGradient id="paint0_linear_1641_681" x1="-149.615" y1="-55.0446" x2="408.022" y2="273.614" gradientUnits="userSpaceOnUse">
<stop stop-color="#3191EA"/>
<stop offset="1" stop-color="#4CF0C9"/>
</linearGradient>
<linearGradient id="paint1_linear_1641_681" x1="-149.615" y1="-139.542" x2="475.3" y2="141.537" gradientUnits="userSpaceOnUse">
<stop stop-color="#3191EA"/>
<stop offset="1" stop-color="#4CF0C9"/>
</linearGradient>
<linearGradient id="paint2_linear_1641_681" x1="184.236" y1="122.39" x2="226.567" y2="170.043" gradientUnits="userSpaceOnUse">
<stop stop-color="#F6F6F6"/>
<stop offset="0.973978" stop-color="#E6E6E6"/>
</linearGradient>
</defs>
</svg>
