<svg width="30" height="30" viewBox="0 0 30 30" fill="none" xmlns="http://www.w3.org/2000/svg">
<path d="M17.2449 5.16996C16.0169 3.90168 13.9829 3.90168 12.7549 5.16995L6.75676 11.3646C6.41228 11.7204 6.1808 12.1701 6.09148 12.6572C5.36303 16.6297 5.30926 20.6965 5.93242 24.6869L6.15305 26.0996C6.22274 26.5458 6.60707 26.8748 7.0587 26.8748H11.2499C11.5951 26.8748 11.8749 26.595 11.8749 26.2498V17.4998H18.1249V26.2498C18.1249 26.595 18.4047 26.8748 18.7499 26.8748H22.941C23.3927 26.8748 23.777 26.5458 23.8467 26.0996L24.0673 24.6869C24.6905 20.6965 24.6367 16.6297 23.9083 12.6572C23.8189 12.1701 23.5875 11.7204 23.243 11.3646L17.2449 5.16996Z" fill="#4CF0C9"/>
</svg>
