<svg width="130" height="130" viewBox="0 0 130 130" fill="none" xmlns="http://www.w3.org/2000/svg">
<path fill-rule="evenodd" clip-rule="evenodd" d="M52.7021 21.6267C58.6169 12.9727 71.3829 12.9727 77.2977 21.6268L79.6373 25.0498C94.295 46.4956 106.889 69.2814 117.249 93.1021L117.738 94.2256C121.389 102.62 115.873 112.152 106.775 113.169C79.0115 116.272 50.9883 116.272 23.2245 113.169C14.1269 112.152 8.61081 102.62 12.2619 94.2256L12.7506 93.1021C23.1112 69.2814 35.7048 46.4955 50.3625 25.0498L52.7021 21.6267ZM70.4167 48.75C70.4167 51.7415 67.9915 54.1666 65 54.1666C62.0085 54.1666 59.5833 51.7415 59.5833 48.75C59.5833 45.7584 62.0085 43.3333 65 43.3333C67.9915 43.3333 70.4167 45.7584 70.4167 48.75ZM65 63.6458C67.2437 63.6458 69.0625 65.4647 69.0625 67.7083V94.7916C69.0625 97.0353 67.2437 98.8541 65 98.8541C62.7564 98.8541 60.9375 97.0353 60.9375 94.7916V67.7083C60.9375 65.4647 62.7564 63.6458 65 63.6458Z" fill="#00CA97"/>
</svg>
