<svg width="130" height="130" viewBox="0 0 130 130" fill="none" xmlns="http://www.w3.org/2000/svg">
<path fill-rule="evenodd" clip-rule="evenodd" d="M52.702 21.6267C58.6169 12.9727 71.3828 12.9727 77.2977 21.6268L79.6372 25.0498C94.295 46.4956 106.888 69.2814 117.249 93.1021L117.738 94.2256C121.389 102.62 115.873 112.152 106.775 113.169C79.0114 116.272 50.9883 116.272 23.2244 113.169C14.1269 112.152 8.61075 102.62 12.2619 94.2256L12.7505 93.1021C23.1112 69.2814 35.7047 46.4955 50.3624 25.0498L52.702 21.6267ZM70.4166 48.75C70.4166 51.7415 67.9915 54.1666 64.9999 54.1666C62.0084 54.1666 59.5833 51.7415 59.5833 48.75C59.5833 45.7584 62.0084 43.3333 64.9999 43.3333C67.9915 43.3333 70.4166 45.7584 70.4166 48.75ZM64.9999 63.6458C67.2436 63.6458 69.0624 65.4647 69.0624 67.7083V94.7916C69.0624 97.0353 67.2436 98.8541 64.9999 98.8541C62.7563 98.8541 60.9374 97.0353 60.9374 94.7916V67.7083C60.9374 65.4647 62.7563 63.6458 64.9999 63.6458Z" fill="#FF0202"/>
</svg>
