<svg width="25" height="26" viewBox="0 0 25 26" fill="none" xmlns="http://www.w3.org/2000/svg">
<path d="M9.11458 10.9167C9.11458 9.04695 10.6303 7.53125 12.5 7.53125C14.3697 7.53125 15.8854 9.04695 15.8854 10.9167C15.8854 12.7864 14.3697 14.3021 12.5 14.3021C10.6303 14.3021 9.11458 12.7864 9.11458 10.9167Z" fill="#4CF0C9"/>
<path fill-rule="evenodd" clip-rule="evenodd" d="M3.93077 9.74728C4.28873 5.40463 7.91768 2.0625 12.2751 2.0625H12.725C17.0824 2.0625 20.7113 5.40463 21.0693 9.74728C21.262 12.0854 20.5398 14.4071 19.0547 16.2233L14.0619 22.3293C13.2547 23.3165 11.7454 23.3165 10.9381 22.3293L5.94534 16.2233C4.46028 14.4071 3.73805 12.0854 3.93077 9.74728ZM12.5 5.96875C9.76734 5.96875 7.55208 8.18401 7.55208 10.9167C7.55208 13.6493 9.76734 15.8646 12.5 15.8646C15.2327 15.8646 17.4479 13.6493 17.4479 10.9167C17.4479 8.18401 15.2327 5.96875 12.5 5.96875Z" fill="#4CF0C9"/>
</svg>
