<svg width="128" height="90" viewBox="0 0 128 90" fill="none" xmlns="http://www.w3.org/2000/svg">
<rect width="128" height="90" rx="4" fill="#003D79"/>
<path fill-rule="evenodd" clip-rule="evenodd" d="M9.25856 47.6668C9.25856 46.0527 9.22968 44.6982 9.14307 43.4905H12.1481L12.289 45.5654H12.3733C13.0544 44.469 14.2999 43.1723 16.6233 43.1723C18.4367 43.1723 19.8532 44.2118 20.4471 45.7668H20.5054C20.9879 44.9892 21.5526 44.4135 22.2037 44.0086C22.9694 43.462 23.848 43.1723 24.9812 43.1723C27.2754 43.1723 29.597 44.7564 29.597 49.2509V57.5174H26.1979V49.7702C26.1979 47.4372 25.4059 46.0527 23.7354 46.0527C22.5435 46.0527 21.6644 46.9185 21.2985 47.9272C21.2125 48.2718 21.1276 48.7042 21.1276 49.1047V57.5174H17.7273V49.3944C17.7273 47.4372 16.9637 46.0527 15.3486 46.0527C14.0453 46.0527 13.1681 47.0914 12.8557 48.0687C12.7131 48.4165 12.6559 48.8187 12.6559 49.2212V57.5174H9.25856V47.6668Z" fill="white"/>
<path fill-rule="evenodd" clip-rule="evenodd" d="M42.8407 54.1475C42.8407 55.4143 42.8973 56.6508 43.0391 57.5174H39.8935L39.6677 55.9624H39.5816C38.7322 57.0579 37.2875 57.8344 35.5029 57.8344C32.7259 57.8344 31.1686 55.7909 31.1686 53.6582C31.1686 50.1139 34.2553 48.3296 39.355 48.3581V48.1268C39.355 47.2047 38.9863 45.679 36.5504 45.679C35.1899 45.679 33.7728 46.1115 32.8385 46.7153L32.1577 44.4129C33.1795 43.7779 34.9658 43.1723 37.1454 43.1723C41.5666 43.1723 42.8407 46.0257 42.8407 49.0776V54.1475ZM39.4398 50.6623C36.9755 50.6042 34.6248 51.1514 34.6248 53.2833C34.6248 54.6645 35.5028 55.2995 36.608 55.2995C37.9944 55.2995 39.0159 54.3774 39.3266 53.3696C39.4109 53.1103 39.4398 52.8212 39.4398 52.5916V50.6623Z" fill="white"/>
<path fill-rule="evenodd" clip-rule="evenodd" d="M45.2497 47.6668C45.2497 46.0527 45.2186 44.6982 45.136 43.4905H48.193L48.3639 45.593H48.4476C49.0433 44.4998 50.5446 43.1723 52.8388 43.1723C55.2476 43.1723 57.7404 44.7564 57.7404 49.1933V57.5174H54.2564V49.5976C54.2564 47.5799 53.5199 46.0527 51.6215 46.0527C50.2334 46.0527 49.2705 47.0611 48.9012 48.1274C48.7898 48.445 48.7603 48.878 48.7603 49.2784V57.5174H45.2497V47.6668Z" fill="white"/>
<path fill-rule="evenodd" clip-rule="evenodd" d="M72.8476 37.8539V53.5699C72.8476 55.0099 72.9033 56.5681 72.9602 57.5175H69.8437L69.7043 55.2999H69.6465C68.8245 56.8561 67.1505 57.8346 65.1413 57.8346C61.8565 57.8346 59.2494 54.9834 59.2494 50.6627C59.2205 45.9671 62.11 43.1724 65.4243 43.1724C67.3217 43.1724 68.6828 43.98 69.305 45.0178H69.3624V37.8539H72.8476ZM69.3624 49.3355C69.3624 49.0505 69.3332 48.7032 69.2787 48.4161C68.9665 47.0334 67.861 45.9093 66.2745 45.9093C64.0366 45.9093 62.7899 47.9267 62.7899 50.548C62.7899 53.1108 64.0366 54.9835 66.2462 54.9835C67.6621 54.9835 68.9094 54.0044 69.2489 52.4782C69.3332 52.1599 69.3624 51.8147 69.3624 51.4389V49.3355Z" fill="white"/>
<path fill-rule="evenodd" clip-rule="evenodd" d="M75.3096 57.5169H78.8259V43.4909H75.3096V57.5169Z" fill="white"/>
<path fill-rule="evenodd" clip-rule="evenodd" d="M81.2884 48.0114C81.2884 46.1111 81.2589 44.7554 81.1743 43.4893H84.2062L84.3171 46.1672H84.4346C85.1133 44.1798 86.7285 43.4893 88.2009 43.4893C88.5402 43.4893 88.7383 43.4303 89.0224 43.4893V46.6011C88.7383 46.5436 88.4273 46.486 88.0023 46.486C86.3312 46.486 85.1971 47.5795 84.8858 49.1628C84.8307 49.4798 84.7735 49.8559 84.7735 50.261V57.5171H81.2884V48.0114Z" fill="white"/>
<path fill-rule="evenodd" clip-rule="evenodd" d="M90.6373 57.5169H94.1485V43.4909H90.6373V57.5169Z" fill="white"/>
<path fill-rule="evenodd" clip-rule="evenodd" d="M89.8066 26.5315C87.6975 27.7732 82.7228 30.6743 80.8657 31.7546C79.7339 32.3408 77.1126 32.5968 75.63 30.5642C75.6035 30.5275 73.6581 28.0559 73.5787 27.9629C73.5229 27.8971 72.2653 26.0004 69.4629 25.9411C69.0489 25.9311 66.9903 25.92 64.9817 27.0807C62.3119 28.6316 56.1026 32.241 56.1026 32.241C56.1009 32.241 56.1009 32.2443 56.0977 32.2443C53.5454 33.7291 51.5567 34.8852 51.5567 34.8852L53.9063 37.8194C55.0055 39.2071 57.4842 40.2806 59.6337 39.0259C59.6337 39.0259 67.5761 34.3494 67.6053 34.3359C71.0402 32.4204 73.6907 32.4204 75.4499 33.1332C77.0289 33.8116 78.4026 35.502 78.4026 35.502C78.4026 35.502 80.1979 37.7642 80.5146 38.1599C81.5361 39.4384 83.2269 38.9361 83.2269 38.9361C83.2269 38.9361 83.8534 38.8639 84.7978 38.2938C84.7978 38.2938 92.4911 33.7582 92.496 33.7567C94.9389 32.2994 97.1794 32.0273 98.3244 32.1345C101.911 32.4659 103.025 35.0135 104.58 36.7907C105.496 37.8361 106.322 38.4297 107.586 38.3998C108.416 38.3818 109.354 37.8699 109.493 37.7774L118.705 32.3717C118.705 32.3717 117.76 30.9241 115.824 28.6719C114.092 26.6624 112.251 27.5716 110.784 28.3105C110.168 28.6205 107.934 30.1312 105.721 31.1851C104.144 31.9357 101.88 31.71 100.639 30.1505C100.564 30.0557 98.5563 27.5839 98.3452 27.2798C97.5348 26.2476 95.9535 25.3231 93.9269 25.3231C92.6947 25.3231 91.2964 25.6649 89.8066 26.5315Z" fill="url(#paint0_linear_8056_1900)"/>
<defs>
<linearGradient id="paint0_linear_8056_1900" x1="51.5567" y1="39.5816" x2="118.705" y2="39.5816" gradientUnits="userSpaceOnUse">
<stop stop-color="#FFCA06"/>
<stop offset="0.330844" stop-color="#FBAA18"/>
<stop offset="0.694742" stop-color="#FFC907"/>
<stop offset="1" stop-color="#FAA619"/>
</linearGradient>
</defs>
</svg>
