<svg width="41" height="40" viewBox="0 0 41 40" fill="none" xmlns="http://www.w3.org/2000/svg">
<rect x="0.5" width="40" height="40" rx="5" fill="#30D4AC"/>
<path d="M21.5 12C21.5 11.4477 21.0523 11 20.5 11C19.9477 11 19.5 11.4477 19.5 12L21.5 12ZM19.7929 28.7071C20.1834 29.0976 20.8166 29.0976 21.2071 28.7071L27.5711 22.3431C27.9616 21.9526 27.9616 21.3195 27.5711 20.9289C27.1805 20.5384 26.5474 20.5384 26.1569 20.9289L20.5 26.5858L14.8431 20.9289C14.4526 20.5384 13.8195 20.5384 13.4289 20.9289C13.0384 21.3195 13.0384 21.9526 13.4289 22.3431L19.7929 28.7071ZM19.5 12L19.5 28L21.5 28L21.5 12L19.5 12Z" fill="white"/>
</svg>
