<svg width="33" height="31" viewBox="0 0 33 31" fill="none" xmlns="http://www.w3.org/2000/svg">
<path fill-rule="evenodd" clip-rule="evenodd" d="M27.6667 30.8333H6.00002C2.77836 30.8333 0.166687 28.2216 0.166687 24.9999V3.23859C0.166687 1.45933 1.92642 0.331337 3.47485 0.868925C3.69606 0.945723 3.91295 1.05651 4.11978 1.20425L4.41153 1.41264C5.85823 2.446 7.81488 2.44143 9.26566 1.40516C11.2939 -0.0435814 14.0395 -0.0435814 16.0677 1.40516C17.5185 2.44143 19.4751 2.446 20.9218 1.41264L21.2136 1.20425C22.8683 0.0223433 25.1667 1.20515 25.1667 3.23859V15.8333H31C31.6904 15.8333 32.25 16.3929 32.25 17.0833V26.2499C32.25 28.7812 30.198 30.8333 27.6667 30.8333ZM25.5834 18.3333V26.2499C25.5834 27.4005 26.5161 28.3333 27.6667 28.3333C28.8173 28.3333 29.75 27.4005 29.75 26.2499V18.3333H25.5834ZM18.5 11.2499C18.5 10.5596 17.9404 9.99992 17.25 9.99992H7.25002C6.55966 9.99992 6.00002 10.5596 6.00002 11.2499C6.00002 11.9403 6.55966 12.4999 7.25002 12.4999H17.25C17.9404 12.4999 18.5 11.9403 18.5 11.2499ZM16.8334 16.2499C16.8334 15.5596 16.2737 14.9999 15.5834 14.9999H7.25002C6.55966 14.9999 6.00002 15.5596 6.00002 16.2499C6.00002 16.9403 6.55966 17.4999 7.25002 17.4999H15.5834C16.2737 17.4999 16.8334 16.9403 16.8334 16.2499ZM17.25 19.9999C17.9404 19.9999 18.5 20.5596 18.5 21.2499C18.5 21.9403 17.9404 22.4999 17.25 22.4999H7.25002C6.55966 22.4999 6.00002 21.9403 6.00002 21.2499C6.00002 20.5596 6.55966 19.9999 7.25002 19.9999H17.25Z" fill="#30D4AC"/>
</svg>
