<svg width="71" height="55" viewBox="0 0 71 55" fill="none" xmlns="http://www.w3.org/2000/svg">
<rect width="60.0623" height="34.3236" rx="4.27365" transform="matrix(0.96679 0.255571 -0.262103 0.96504 12.4966 3.05176e-05)" fill="#92FF80"/>
<path d="M40.1672 28.1814C40.0142 28.7445 39.7266 29.2469 39.3044 29.6885C38.8853 30.1184 38.3534 30.4304 37.7086 30.6246C37.0756 30.8219 36.3708 30.843 35.5941 30.688L35.207 32.1133L34.2551 31.8617L34.6422 30.4363C33.5982 30.0598 32.8209 29.4897 32.3103 28.726C31.8029 27.9507 31.6676 27.1039 31.9044 26.1858L33.6144 26.6378C33.5276 27.1429 33.5934 27.6193 33.812 28.0668C34.0423 28.5175 34.4385 28.8674 35.0006 29.1166L36.1954 24.7174C35.4622 24.3098 34.8833 23.9367 34.4588 23.5982C34.0343 23.2597 33.7122 22.8225 33.4924 22.2866C33.2727 21.7507 33.2648 21.1074 33.4687 20.3566C33.7268 19.4063 34.2693 18.7073 35.0963 18.2596C35.9351 17.8149 36.9164 17.7034 38.0402 17.925L38.4369 16.4645L39.3889 16.7161L38.9922 18.1767C39.9688 18.5229 40.6863 19.0583 41.1445 19.7829C41.6058 20.4959 41.7625 21.3105 41.6143 22.227L39.9044 21.7749C39.9571 21.3488 39.8753 20.9311 39.659 20.5219C39.4458 20.1009 39.1009 19.7708 38.6242 19.5316L37.458 23.8252C38.1795 24.2297 38.7525 24.6012 39.177 24.9398C39.6165 25.2697 39.9402 25.701 40.1482 26.2338C40.3679 26.7697 40.3743 27.4189 40.1672 28.1814ZM35.1321 20.702C34.9759 21.2768 35.0269 21.7618 35.2849 22.1569C35.5428 22.552 35.9738 22.9362 36.5778 23.3096L37.6818 19.2448C37.0547 19.1419 36.5128 19.2124 36.0561 19.4563C35.6026 19.6884 35.2946 20.1037 35.1321 20.702ZM35.9478 29.3858C36.6016 29.4832 37.1573 29.3849 37.615 29.091C38.0845 28.8002 38.3925 28.385 38.5391 27.8453C38.6952 27.2705 38.6384 26.784 38.3686 26.3858C38.1021 25.9758 37.6711 25.5916 37.0757 25.233L35.9478 29.3858Z" fill="#439D34"/>
<mask id="mask0_8056_1860" style="mask-type:alpha" maskUnits="userSpaceOnUse" x="4" y="0" width="66" height="48">
<rect width="60.0623" height="34.3236" rx="4.27365" transform="matrix(0.96679 0.255571 -0.262103 0.96504 12.4966 3.05176e-05)" fill="black"/>
</mask>
<g mask="url(#mask0_8056_1860)">
<ellipse rx="14.2328" ry="14.067" transform="matrix(0.96679 0.255571 -0.262103 0.96504 12.4969 -0.000117555)" fill="#439D34"/>
<ellipse rx="14.2328" ry="14.067" transform="matrix(0.96679 0.255571 -0.262103 0.96504 70.5643 15.3502)" fill="#439D34"/>
<ellipse rx="14.2328" ry="14.067" transform="matrix(0.96679 0.255571 -0.262103 0.96504 3.50034 33.1233)" fill="#439D34"/>
<ellipse rx="14.2328" ry="14.067" transform="matrix(0.96679 0.255571 -0.262103 0.96504 61.5682 48.4744)" fill="#439D34"/>
</g>
<g filter="url(#filter0_d_8056_1860)">
<rect x="3.5" y="17.7079" width="60.1161" height="34.2921" rx="4.27365" fill="#92FF80"/>
<path d="M37.6119 37.8788C37.6119 38.4623 37.466 39.0215 37.1743 39.5564C36.8825 40.0791 36.451 40.5167 35.8796 40.8692C35.3205 41.2218 34.6458 41.4224 33.8556 41.471V42.948H32.871V41.471C31.7648 41.3737 30.8652 41.0212 30.1723 40.4134C29.4794 39.7934 29.1269 39.0094 29.1147 38.0612H30.8835C30.9321 38.5717 31.1205 39.0154 31.4487 39.3923C31.7891 39.7691 32.2632 40.0062 32.871 40.1034V35.5448C32.0565 35.3382 31.4001 35.1255 30.9017 34.9066C30.4033 34.6878 29.9778 34.3475 29.6253 33.8855C29.2728 33.4236 29.0965 32.8036 29.0965 32.0256C29.0965 31.041 29.4369 30.2265 30.1176 29.5822C30.8105 28.938 31.7283 28.5794 32.871 28.5064V26.993H33.8556V28.5064C34.8889 28.5915 35.7216 28.9258 36.3537 29.5093C36.9859 30.0806 37.3505 30.8282 37.4478 31.7521H35.6791C35.6183 31.3267 35.4299 30.9437 35.1138 30.6034C34.7977 30.2508 34.3784 30.0199 33.8556 29.9105V34.3596C34.6579 34.5663 35.3083 34.779 35.8067 34.9978C36.3173 35.2045 36.7427 35.5388 37.0831 36.0007C37.4356 36.4626 37.6119 37.0887 37.6119 37.8788ZM30.7923 31.9345C30.7923 32.5301 30.9685 32.986 31.3211 33.302C31.6736 33.6181 32.1902 33.8794 32.871 34.0861V29.874C32.2389 29.9348 31.7344 30.1414 31.3575 30.494C30.9807 30.8343 30.7923 31.3145 30.7923 31.9345ZM33.8556 40.1216C34.5121 40.0487 35.0226 39.8117 35.3873 39.4105C35.7642 39.0094 35.9526 38.5292 35.9526 37.97C35.9526 37.3743 35.7702 36.9185 35.4056 36.6024C35.0409 36.2742 34.5242 36.0129 33.8556 35.8184V40.1216Z" fill="#439D34"/>
<mask id="mask1_8056_1860" style="mask-type:alpha" maskUnits="userSpaceOnUse" x="3" y="17" width="61" height="35">
<rect x="3.5" y="17.7079" width="60.1161" height="34.2921" rx="4.27365" fill="black"/>
</mask>
<g mask="url(#mask1_8056_1860)">
<ellipse cx="3.5004" cy="17.7081" rx="14.2455" ry="14.0541" fill="#439D34"/>
<ellipse cx="63.6161" cy="17.7081" rx="14.2455" ry="14.0541" fill="#439D34"/>
<ellipse cx="3.5004" cy="52.0002" rx="14.2455" ry="14.0541" fill="#439D34"/>
<ellipse cx="63.6161" cy="52.0002" rx="14.2455" ry="14.0541" fill="#439D34"/>
</g>
</g>
<defs>
<filter id="filter0_d_8056_1860" x="0.650897" y="13.1493" width="67.5237" height="41.6998" filterUnits="userSpaceOnUse" color-interpolation-filters="sRGB">
<feFlood flood-opacity="0" result="BackgroundImageFix"/>
<feColorMatrix in="SourceAlpha" type="matrix" values="0 0 0 0 0 0 0 0 0 0 0 0 0 0 0 0 0 0 127 0" result="hardAlpha"/>
<feOffset dx="0.854731" dy="-0.854731"/>
<feGaussianBlur stdDeviation="1.85192"/>
<feComposite in2="hardAlpha" operator="out"/>
<feColorMatrix type="matrix" values="0 0 0 0 0 0 0 0 0 0 0 0 0 0 0 0 0 0 0.25 0"/>
<feBlend mode="normal" in2="BackgroundImageFix" result="effect1_dropShadow_8056_1860"/>
<feBlend mode="normal" in="SourceGraphic" in2="effect1_dropShadow_8056_1860" result="shape"/>
</filter>
</defs>
</svg>
