<svg width="71" height="71" viewBox="0 0 71 71" fill="none" xmlns="http://www.w3.org/2000/svg">
<rect width="71" height="71" rx="6" fill="#A9C853"/>
<mask id="mask0_2143_289" style="mask-type:alpha" maskUnits="userSpaceOnUse" x="0" y="0" width="71" height="71">
<rect width="71" height="71" rx="6" fill="#A9C853"/>
</mask>
<g mask="url(#mask0_2143_289)">
<path d="M15.6851 21.5825C14.8234 19.0634 16.2107 16.3299 18.7527 15.5381L38.1342 9.50127C40.7435 8.68853 43.4964 10.2508 44.1368 12.9076L53.0905 50.0558C53.6478 52.368 52.4008 54.7343 50.1785 55.5816L34.5255 61.5501C32.0255 62.5034 29.2332 61.194 28.3673 58.6623L15.6851 21.5825Z" fill="#373737"/>
<path d="M18.4346 24.2128C17.5774 21.6957 18.9638 18.9669 21.5023 18.175L37.1807 13.284C39.7874 12.4708 42.5391 14.0284 43.1834 16.6819L51.0904 49.2424C51.6513 51.5522 50.4103 53.9193 48.1915 54.7718L35.6674 59.5837C33.163 60.5459 30.3607 59.2339 29.4959 56.6943L18.4346 24.2128Z" fill="white"/>
<path d="M25.89 46.7834C25.5368 45.7754 26.0878 44.675 27.1066 44.3541L46.4704 38.2546C47.5221 37.9234 48.633 38.5583 48.8813 39.6325L51.1343 49.3782C51.6659 51.678 50.42 54.0176 48.2149 54.86L35.5632 59.6932C33.0756 60.6436 30.2943 59.353 29.4137 56.8399L25.89 46.7834Z" fill="#69C1FF"/>
<path d="M27.2301 47.8471C26.9829 47.0918 27.4044 46.2808 28.1646 46.0491L32.0654 44.8599C32.8001 44.6359 33.5797 45.0375 33.8239 45.7658L34.7509 48.5309C34.9958 49.2613 34.613 50.0535 33.8886 50.3156L30.0331 51.7106C29.2803 51.983 28.4514 51.5788 28.2024 50.818L27.2301 47.8471Z" fill="white"/>
<path d="M34.5643 45.2077C34.3369 44.4587 34.7593 43.667 35.5081 43.4388L39.5567 42.205C40.2852 41.983 41.0589 42.3758 41.3096 43.0949L42.2876 45.8999C42.5462 46.6414 42.1531 47.4518 41.4107 47.7078L37.2923 49.128C36.5321 49.3901 35.7063 48.9686 35.4726 48.1991L34.5643 45.2077Z" fill="white"/>
<path d="M41.8817 42.845C41.593 42.0887 41.9948 41.2445 42.7638 40.9916L46.7444 39.6826C47.5272 39.4252 48.3638 39.8866 48.5637 40.686L49.3004 43.6329C49.4773 44.3405 49.0887 45.0669 48.402 45.3126L44.8013 46.6002C44.0747 46.8601 43.2737 46.4914 42.9985 45.7705L41.8817 42.845Z" fill="white"/>
<line x1="25.034" y1="15.5906" x2="33.6113" y2="13.0417" stroke="white" stroke-width="0.472817" stroke-linecap="round"/>
</g>
</svg>
